<svg width="361" height="405" viewBox="0 0 361 405" fill="none" xmlns="http://www.w3.org/2000/svg">
    <g clip-path="url(#clip0)">
        <path
            d="M81.1003 62.3006C34.6003 84.3006 75.8003 120.501 47.9003 164.501C-6.69975 250.801 206.6 401.901 316.9 313.101C427.2 224.301 298.5 127.401 269.6 108.801C240.7 90.2006 127.6 40.2006 81.1003 62.3006Z"
            fill="#F0F0F0"/>
        <path
            d="M278.6 380.399C278.5 380.399 278.4 380.399 278.3 380.399C272.8 380.199 268.4 375.599 268.6 370.099L272.4 246.899C272.6 241.499 277 237.199 282.4 237.199C282.5 237.199 282.6 237.199 282.7 237.199C288.2 237.399 292.6 241.999 292.4 247.499L288.6 370.699C288.5 376.099 284 380.399 278.6 380.399Z"
            fill="#048939"/>
        <path
            d="M219.7 158.2L212.9 138.2L195.5 156.1L168.2 152.6L168.1 152.4L126.4 87.5L160.9 94.1L182.2 77L190.3 93.9L213.3 136.3L213.4 136.2L220.4 156.9L229.1 154.9L229.3 155.9L219.7 158.2ZM168.8 151.7L195.1 155.1L212.5 137.2L189.3 94.5L181.7 78.7L161.1 95.3L128.5 89L168.8 151.7Z"
            fill="#252626"/>
        <path d="M233.5 146.099L207.9 97.6992H192.4V96.6992H208.5L208.6 96.9992L234.4 145.699L233.5 146.099Z"
              fill="#252626"/>
        <path d="M161.473 94.4817L160.596 94.9609L171.138 114.27L172.016 113.791L161.473 94.4817Z" fill="#252626"/>
        <path d="M189.954 146.371L189.111 146.91L194.875 155.925L195.718 155.386L189.954 146.371Z" fill="#252626"/>
        <path
            d="M244.301 30.8005C181.701 57.2005 224.801 128.4 222.101 159.9C217.201 217 182.601 326.6 250.201 326.6C333.301 326.6 320.901 168.4 320.901 168.4C320.901 168.4 306.901 4.40047 244.301 30.8005Z"
            fill="#59B37E"/>
        <path
            d="M243.601 252.201C243.401 252.201 243.201 252.201 242.901 252.201C240.201 251.801 238.201 249.301 238.601 246.601C250.001 161.401 235.801 97.9005 235.701 97.2005C235.101 94.5005 236.801 91.8005 239.501 91.2005C242.201 90.6005 244.901 92.3005 245.501 95.0005C246.101 97.6005 260.201 160.801 248.601 247.901C248.201 250.401 246.101 252.201 243.601 252.201Z"
            fill="#058A39"/>
        <path
            d="M265.001 291.901C264.801 291.901 264.601 291.901 264.301 291.901C261.601 291.501 259.601 289.001 260.001 286.301C277.601 152.901 255.901 53.5009 255.701 52.6009C255.101 49.9009 256.801 47.2009 259.501 46.6009C262.201 46.0009 264.901 47.7009 265.501 50.4009C265.701 51.4009 287.801 152.401 270.001 287.601C269.701 290.101 267.501 291.901 265.001 291.901Z"
            fill="#058A39"/>
        <path
            d="M292.199 264.3C291.899 264.3 291.599 264.3 291.199 264.2C288.499 263.7 286.699 261 287.199 258.3C304.599 168.9 283.299 80.9996 283.099 80.0996C282.399 77.3996 284.099 74.6996 286.799 73.9996C289.499 73.2996 292.199 74.9996 292.899 77.6996C293.099 78.5996 314.899 168.6 297.099 260.2C296.699 262.7 294.599 264.3 292.199 264.3Z"
            fill="#058A39"/>
        <path
            d="M238.2 13.8993C199.7 26.1993 206.4 78.9993 206.4 78.9993L300.8 67.3993C300.8 67.3993 276.7 1.59929 238.2 13.8993Z"
            fill="#3B81BF"/>
        <path
            d="M206.4 84C204 84 201.9 82.3 201.5 79.8C201 77.1 202.9 74.5 205.6 74L298.4 58.5C301.1 58 303.7 59.9 304.2 62.6C304.7 65.3 302.8 67.9 300.1 68.4L207.3 83.9C206.9 84 206.6 84 206.4 84Z"
            fill="#3B81BF"/>
        <path
            d="M197.301 208.3C192.901 208.3 188.101 206.5 169.601 184.3C160.701 173.6 152.901 163.1 152.501 162.7C150.001 159.4 150.701 154.7 154.001 152.2C157.301 149.7 162.001 150.4 164.501 153.7C175.601 168.5 189.401 185.2 196.201 191.4C201.501 183.1 212.001 160.4 221.701 136C223.201 132.1 227.601 130.3 231.401 131.8C235.301 133.3 237.101 137.7 235.601 141.5C235.501 141.7 229.301 157.4 222.301 172.9C208.601 203.4 203.701 208.3 197.301 208.3Z"
            fill="#048939"/>
        <path
            d="M133.2 117.8C116.4 122.4 145 164.5 145 164.5L165.4 153C165.4 153 160.5 149.2 162.4 145.2C164.3 141.2 177.8 136.3 173.2 132C168.6 127.7 155.5 134.3 151.5 133.6C147.5 132.9 144.1 117.1 133.2 117.8Z"
            fill="#9BCFB1"/>
        <path
            d="M292.1 367.6C295.6 367.2 300.7 391.6 287.6 390.7C274.6 389.9 244.7 384.7 236.9 380.9C225.8 368.3 263.9 362.1 268.1 365.6C275.8 371.9 288.6 367.9 292.1 367.6Z"
            fill="#9BCFB1"/>
        <path
            d="M233.399 401.3C233.299 401.3 233.199 401.3 233.099 401.3C227.599 401.1 223.199 396.5 223.399 391L227.199 267.8C227.399 262.3 231.999 257.9 237.499 258.1C242.999 258.3 247.399 262.9 247.199 268.4L243.399 391.6C243.199 397 238.699 401.3 233.399 401.3Z"
            fill="#048939"/>
        <path
            d="M244.6 381.1C248.1 380.7 253.2 405.1 240.1 404.2C227.1 403.4 197.2 398.2 189.4 394.4C178.3 381.8 216.4 375.6 220.6 379.1C228.3 385.5 241.2 381.5 244.6 381.1Z"
            fill="#9BCFB1"/>
        <path
            d="M65.999 266.401C62.199 266.101 58.899 263.301 55.999 260.801C53.599 258.801 51.399 256.901 49.699 256.901C47.599 256.901 46.499 257.001 45.499 257.101C44.499 257.201 43.499 257.301 41.399 257.201C39.299 257.101 37.499 256.401 35.799 255.701C34.099 255.001 32.499 254.301 30.699 254.301C28.099 254.301 18.399 260.901 12.799 265.001C12.399 265.301 11.699 265.201 11.399 264.801C11.099 264.401 11.199 263.701 11.599 263.401C13.099 262.301 26.599 252.301 30.699 252.301C32.899 252.301 34.699 253.101 36.499 253.801C38.099 254.501 39.699 255.101 41.399 255.201C43.299 255.301 44.199 255.201 45.199 255.101C46.199 255.001 47.299 254.901 49.499 254.901C51.999 254.901 54.499 257.001 57.099 259.301C59.899 261.701 62.899 264.201 65.899 264.401C66.499 264.401 66.899 264.901 66.799 265.501C66.999 266.001 66.599 266.401 65.999 266.401Z"
            fill="#CAC8C9"/>
        <path
            d="M135.7 258.299C134.5 258.299 132.9 257.299 130.8 255.999C127.8 254.099 124 251.699 120.2 251.699C114 251.699 105.5 257.999 105.5 258.099C105.1 258.399 104.4 258.299 104.1 257.899C103.8 257.499 103.9 256.799 104.3 256.499C104.7 256.199 113.4 249.699 120.2 249.699C124.6 249.699 128.8 252.299 131.9 254.299C133.5 255.299 135.1 256.299 135.7 256.299C136.3 256.299 136.7 256.699 136.7 257.299C136.7 257.899 136.3 258.299 135.7 258.299Z"
            fill="#CAC8C9"/>
        <path
            d="M126.7 238.2C126.6 238.2 126.4 238.2 126.3 238.1C126 237.9 93.2997 222.1 63.4997 222.1C33.6997 222.1 1.79969 237 1.49969 237.2C0.999688 237.4 0.399688 237.2 0.199688 236.7C-0.00031244 236.2 0.199688 235.6 0.699688 235.4C0.999688 235.2 33.2997 220.1 63.4997 220.1C93.7997 220.1 126.9 236.1 127.2 236.3C127.7 236.5 127.9 237.1 127.7 237.6C127.4 238 127 238.2 126.7 238.2Z"
            fill="#CAC8C9"/>
        <path
            d="M52.901 216.101C46.401 219.701 51.101 206.201 53.501 203.501C55.901 200.801 61.901 198.701 62.801 196.801C63.701 194.901 60.701 190.701 60.301 188.801C59.901 186.901 64.901 185.301 66.801 185.701C68.701 186.101 65.801 181.301 66.801 180.601C67.801 179.901 71.401 177.001 72.401 177.501C73.301 178.101 70.301 181.101 70.001 182.501C69.701 183.901 72.401 185.401 72.401 186.801C72.401 188.201 67.301 188.501 67.401 190.101C67.501 191.701 70.901 197.001 71.201 198.301C71.501 199.601 69.401 199.501 69.401 201.001C69.401 202.501 75.701 216.801 72.501 216.101C69.201 215.401 59.501 212.501 52.901 216.101Z"
            fill="#BA3A24"/>
        <path
            d="M60.9008 218.3C61.2322 218.3 61.5008 217.583 61.5008 216.7C61.5008 215.816 61.2322 215.1 60.9008 215.1C60.5694 215.1 60.3008 215.816 60.3008 216.7C60.3008 217.583 60.5694 218.3 60.9008 218.3Z"
            fill="black"/>
        <path
            d="M63.0004 218.3C63.3318 218.3 63.6004 217.583 63.6004 216.7C63.6004 215.816 63.3318 215.1 63.0004 215.1C62.669 215.1 62.4004 215.816 62.4004 216.7C62.4004 217.583 62.669 218.3 63.0004 218.3Z"
            fill="black"/>
        <path
            d="M72.9 179.3C73.9493 179.3 74.8 178.449 74.8 177.4C74.8 176.351 73.9493 175.5 72.9 175.5C71.8507 175.5 71 176.351 71 177.4C71 178.449 71.8507 179.3 72.9 179.3Z"
            fill="#D94555"/>
        <path
            d="M220.901 67.6998C219.901 67.6998 219.101 66.9998 218.901 65.9998C214.601 40.4998 227.201 24.9998 227.701 24.3998C228.401 23.5998 229.701 23.3998 230.501 24.0998C231.301 24.7998 231.501 26.0998 230.801 26.8998C230.601 27.0998 218.901 41.7998 222.801 65.2998C223.001 66.3998 222.301 67.3998 221.201 67.5998C221.201 67.6998 221.001 67.6998 220.901 67.6998Z"
            fill="#04548C"/>
        <path
            d="M281 55.1993C280.2 55.1993 279.4 54.6993 279.1 53.8993C269.8 28.9993 251.5 20.5993 251.3 20.4993C250.3 19.9993 249.8 18.8993 250.3 17.8993C250.7 16.8993 251.9 16.3993 252.9 16.8993C253.7 17.2993 272.9 25.9993 282.8 52.4993C283.2 53.4993 282.7 54.6993 281.6 55.0993C281.5 55.1993 281.2 55.1993 281 55.1993Z"
            fill="#04548C"/>
        <path
            d="M233.9 63.3994C232.9 63.3994 232 62.5994 231.9 61.4994C230.8 45.4994 234 35.6994 234.1 35.2994C234.4 34.2994 235.6 33.6994 236.6 33.9994C237.6 34.2994 238.2 35.4994 237.9 36.4994C237.9 36.5994 234.9 45.9994 235.9 61.1994C236 62.2994 235.1 63.2994 234 63.2994C234 63.3994 233.9 63.3994 233.9 63.3994Z"
            fill="#04548C"/>
        <path
            d="M267.599 55.6998C266.799 55.6998 266.099 55.2998 265.799 54.4998C259.399 40.6998 252.299 33.8998 252.199 33.7998C251.399 32.9998 251.399 31.7998 252.099 30.9998C252.899 30.1998 254.099 30.1998 254.899 30.8998C255.199 31.1998 262.599 38.2998 269.299 52.7998C269.799 53.7998 269.299 54.9998 268.299 55.4998C268.199 55.5998 267.899 55.6998 267.599 55.6998Z"
            fill="#04548C"/>
        <path
            d="M237.3 15.8C241.663 15.8 245.2 12.2631 245.2 7.9C245.2 3.53695 241.663 0 237.3 0C232.937 0 229.4 3.53695 229.4 7.9C229.4 12.2631 232.937 15.8 237.3 15.8Z"
            fill="#04548C"/>
    </g>
    <defs>
        <clipPath id="clip0">
            <rect width="360.9" height="404.3" fill="white"/>
        </clipPath>
    </defs>
</svg>
