<svg width="211" height="57" viewBox="0 0 211 57" fill="none" xmlns="http://www.w3.org/2000/svg">
<path d="M44.7171 33.0624C46.0701 40.3453 42.3701 46.9491 36.7008 48.0023C31.0314 49.0555 25.2066 44.2212 23.8536 36.9383C22.5006 29.6554 26.2005 23.0516 31.8699 21.9984C37.5392 20.9452 43.3641 25.7795 44.7171 33.0624Z" fill="#FFEB09" stroke="black"/>
<ellipse cx="32.1647" cy="30.7412" rx="0.653543" ry="1.30709" transform="rotate(-10.5241 32.1647 30.7412)" fill="black"/>
<ellipse cx="34.7348" cy="30.2637" rx="0.653543" ry="1.30709" transform="rotate(-10.5241 34.7348 30.2637)" fill="black"/>
<path d="M35.3395 50.0125C22.6631 50.8962 18.6711 33.248 18.6711 33.248L21.7966 38.5521L22.6474 35.4517L25.3765 38.6226L25.2735 34.2282L27.3422 33.8439L29.5139 37.854L31.7438 34.4974L35.0304 36.8292L37.2603 33.4726L39.0357 35.3495L41.2656 31.9929L44.5523 34.3247L47.3396 30.1289C47.3396 30.1289 48.0158 49.1287 35.3395 50.0125Z" fill="white" stroke="black"/>
<path d="M12.6525 49.3103C4.82999 45.3467 8.82739 33.0001 8.82739 33.0001L8.76593 37.396L10.3869 35.7793L10.8597 38.7136L12.3825 35.9563L13.7456 36.4545L13.5859 39.7099L16.1156 38.4253L17.2208 41.0384L19.7506 39.7538L20.1251 41.5476L22.6549 40.263L23.76 42.8761L26.9222 41.2703C26.9222 41.2703 20.4749 53.2738 12.6525 49.3103Z" fill="white" stroke="black"/>
<path d="M206.642 33.9637C206.642 41.3712 201.798 47.1881 196.031 47.1881C190.265 47.1881 185.421 41.3712 185.421 33.9637C185.421 26.5561 190.265 20.7393 196.031 20.7393C201.798 20.7393 206.642 26.5561 206.642 33.9637Z" fill="#FFEB09" stroke="black"/>
<ellipse cx="194.725" cy="29.3888" rx="0.653543" ry="1.30709" fill="black"/>
<ellipse cx="197.339" cy="29.3888" rx="0.653543" ry="1.30709" fill="black"/>
<path d="M194.326 48.9158C181.701 47.4693 181 29.3889 181 29.3889L183.104 35.1746L184.507 32.2817L186.611 35.8978L187.312 31.5585H189.416L190.819 35.8978L193.625 33.005L196.43 35.8978L199.235 33.005L200.638 35.1746L203.444 32.2817L206.249 35.1746L209.756 31.5585C209.756 31.5585 206.95 50.3622 194.326 48.9158Z" fill="white" stroke="black"/>
<path d="M102.803 32.003C102.803 32.003 102.803 29.3888 104.764 26.7747" stroke="#5B913B" stroke-width="4"/>
<path d="M118.261 36.5441C116.458 43.7289 110.344 48.1923 104.751 46.7891C99.1584 45.386 95.8756 38.5653 97.6781 31.3804C99.4806 24.1955 105.594 19.7322 111.187 21.1353C116.78 22.5385 120.063 29.3592 118.261 36.5441Z" fill="#77B254" stroke="black"/>
<path d="M105.417 25.4676C105.417 25.4676 102.803 28.0818 102.15 30.0424C101.496 32.003 101.496 33.9637 101.496 33.9637" stroke="#5B913B"/>
<path d="M113.26 38.5385C113.26 38.5385 114.276 35.4464 114.652 33.0975C115.028 30.7486 115.211 28.3847 115.211 28.3847" stroke="#5B913B"/>
<path d="M104.764 39.8454C104.764 39.8454 107.002 39.5803 107.378 37.2313C107.754 34.8824 110.646 19.5857 110.646 19.5857" stroke="#5B913B"/>
<ellipse cx="107.815" cy="29.2069" rx="0.653543" ry="1.30709" transform="rotate(14.0834 107.815 29.2069)" fill="black"/>
<ellipse cx="110.351" cy="29.843" rx="0.653543" ry="1.30709" transform="rotate(14.0834 110.351 29.843)" fill="black"/>
<path d="M102.677 48.0499C90.7836 43.575 94.5029 25.8672 94.5029 25.8672L95.1359 31.9911L97.2004 29.5265L98.3613 33.5459L100.098 29.5077L102.138 30.0197L102.443 34.5699L105.868 32.4466L107.885 35.9352L111.31 33.812L112.143 36.2577L115.568 34.1345L117.585 37.6231L121.867 34.969C121.867 34.969 114.57 52.5248 102.677 48.0499Z" fill="white" stroke="black"/>
<path d="M114.127 10.6637C124.883 14.9529 120.809 33.8143 120.809 33.8143L120.455 27.3628L118.467 30.0455L117.551 25.8388L115.806 30.1732L113.95 29.7077L113.84 24.9079L110.615 27.2803L108.892 23.6667L105.668 26.0391L104.994 23.4841L101.769 25.8565L100.047 22.2429L96.0158 25.2084C96.0158 25.2084 103.37 6.37453 114.127 10.6637Z" fill="white" stroke="black"/>
<path d="M43.9899 34.6172C43.984 31.3495 47.9112 13.7038 57.7143 13.7038C67.5175 13.7038 70.7853 33.3101 70.1316 38.5384C69.478 43.7668 68.171 51.6093 55.7537 50.9558C43.3364 50.3022 43.9958 37.8849 43.9899 34.6172Z" fill="white" stroke="black"/>
<path d="M57.0345 19.5857L57.8948 7.1684M55.7539 11.8784L60.8921 7.1684" stroke="#FF9100" stroke-linecap="round" stroke-linejoin="round"/>
<path d="M62.6048 9.30933L58.323 10.1657" stroke="#FF9100" stroke-linecap="round" stroke-linejoin="round"/>
<path d="M150.477 36.9318C151.763 33.928 155.067 16.1551 146.049 12.3123C137.03 8.46952 126.338 25.2257 124.89 30.2919C123.442 35.358 121.57 43.0852 133.25 47.3515C144.929 51.6177 149.19 39.9357 150.477 36.9318Z" fill="white" stroke="black"/>
<path d="M144.368 17.99L148.444 6.22919M148.568 11.4015L145.687 5.05428" stroke="#FF9100" stroke-linecap="round" stroke-linejoin="round"/>
<path d="M143.272 6.35249L146.876 8.81878" stroke="#FF9100" stroke-linecap="round" stroke-linejoin="round"/>
<path d="M144.368 17.99L148.444 6.22919M148.568 11.4015L145.687 5.05428" stroke="#FF9100" stroke-linecap="round" stroke-linejoin="round"/>
<path d="M143.272 6.35249L146.876 8.81878" stroke="#FF9100" stroke-linecap="round" stroke-linejoin="round"/>
<path d="M141.913 17.7864L137.894 6.00631M141.172 10.0087L134.997 6.7759" stroke="#FF9100" stroke-linecap="round" stroke-linejoin="round"/>
<path d="M133.891 9.28484L138.249 9.01308" stroke="#FF9100" stroke-linecap="round" stroke-linejoin="round"/>
<path d="M172.886 32.003C172.886 36.6122 171.663 40.7621 169.713 43.7446C167.76 46.7316 165.12 48.4951 162.276 48.4951C159.431 48.4951 156.791 46.7316 154.838 43.7446C152.888 40.7621 151.665 36.6122 151.665 32.003C151.665 27.3938 152.888 23.2439 154.838 20.2614C156.791 17.2744 159.431 15.5109 162.276 15.5109C165.12 15.5109 167.76 17.2744 169.713 20.2614C171.663 23.2439 172.886 27.3938 172.886 32.003Z" fill="#FFEB09" stroke="black"/>
<ellipse cx="160.968" cy="24.1605" rx="0.653543" ry="1.30709" fill="black"/>
<ellipse cx="163.583" cy="24.1605" rx="0.653543" ry="1.30709" fill="black"/>
<path d="M160.57 50.2229C147.946 48.7764 147.244 30.6959 147.244 30.6959L149.348 36.4817L150.751 33.5888L152.855 37.2049L153.556 32.8656H155.661L157.063 37.2049L159.869 34.312L162.674 37.2049L165.48 34.312L166.882 36.4817L169.688 33.5888L172.493 36.4817L176 32.8656C176 32.8656 173.195 51.6693 160.57 50.2229Z" fill="white" stroke="black"/>
<path d="M99.689 33.9637C99.689 41.3712 94.8451 47.1881 89.0787 47.1881C83.3124 47.1881 78.4685 41.3712 78.4685 33.9637C78.4685 26.5561 83.3124 20.7393 89.0787 20.7393C94.8451 20.7393 99.689 26.5561 99.689 33.9637Z" fill="#FFEB09" stroke="black"/>
<ellipse cx="87.7717" cy="29.3888" rx="0.653543" ry="1.30709" fill="black"/>
<ellipse cx="90.386" cy="29.3888" rx="0.653543" ry="1.30709" fill="black"/>
<path d="M87.373 48.9158C74.7485 47.4693 74.0471 29.3889 74.0471 29.3889L76.1512 35.1746L77.5539 32.2817L79.658 35.8978L80.3594 31.5585H82.4635L83.8662 35.8978L86.6717 33.005L89.4771 35.8978L92.2826 33.005L93.6853 35.1746L96.4908 32.2817L99.2962 35.1746L102.803 31.5585C102.803 31.5585 99.9976 50.3622 87.373 48.9158Z" fill="white" stroke="black"/>
<path d="M89.3816 9.86719C100.858 11.4101 101.496 30.6959 101.496 30.6959L99.5833 24.5244L98.3081 27.6102L96.3953 23.753L95.7577 28.3816H93.8449L92.5696 23.753L90.0192 26.8388L87.4688 23.753L84.9184 26.8388L83.6432 24.5244L81.0928 27.6102L78.5424 24.5244L75.3544 28.3816C75.3544 28.3816 77.9048 8.32432 89.3816 9.86719Z" fill="white" stroke="black"/>
<path d="M153.779 17.6419C153.779 17.6419 156.393 12.8157 161.622 12.4135C166.85 12.0113 170.772 18.9489 170.772 18.9489L166.85 16.9883V22.2167L163.583 16.9883L161.622 19.6025L159.661 16.9883L153.779 17.6419Z" fill="white" stroke="black"/>
</svg>
