<?xml version="1.0" encoding="UTF-8"?>
<svg width="24px" height="24px" viewBox="0 0 24 24" version="1.1" xmlns="http://www.w3.org/2000/svg" xmlns:xlink="http://www.w3.org/1999/xlink">
    <!-- Generator: Sketch 55.1 (78136) - https://sketchapp.com -->
    <title>Ikon_sykmelder</title>
    <desc>Created with Sketch.</desc>
    <g id="Ikon_sykmelder" stroke="none" stroke-width="1" fill="none" fill-rule="evenodd">
        <g id="Group" transform="translate(4.000000, 3.000000)" fill="#78706A" stroke="#78706A" stroke-width="0.5">
            <path d="M2.54874188,7.67864459 C3.31926967,7.69115405 3.95509702,7.07089322 3.96954764,6.29165798 C3.98399826,5.51346519 3.37036294,4.86610053 2.60189952,4.84890002 C1.82311423,4.83169951 1.1774811,5.46342734 1.17025579,6.24839609 C1.16354657,7.03180115 1.77460143,7.6656139 2.54874188,7.67864459 M1.91652718,8.77791357 C1.82672689,8.74768237 1.75705425,8.72683327 1.69047817,8.70129311 C0.383729092,8.20612691 -0.300094969,6.79047278 0.126714464,5.46029998 C0.547330773,4.14420032 1.92994561,3.3957175 3.25837062,3.76578909 C4.36590755,4.07331337 5.12611347,5.08449489 5.13953191,6.26768151 C5.15191815,7.39509678 4.38964786,8.42191513 3.29088452,8.75028851 C3.16031283,8.78938058 3.07567347,8.81856932 3.0736091,8.99943529 C3.05141707,10.6626725 3.01064568,12.3248673 2.98380881,13.9875833 C2.9523271,15.9692906 4.37313286,17.5804051 6.32396679,17.7904598 C8.43220927,18.0171938 10.6715395,16.2893243 10.3608512,13.4627071 C9.8643691,13.286011 9.3699514,13.1478857 8.90753151,12.9378309 C8.01004468,12.5307522 7.23487205,11.948541 6.65478281,11.1307349 C6.37299568,10.7340807 6.16655823,10.3014618 6.17533182,9.80264701 C6.21094228,7.68177195 6.23519868,5.5608969 6.30590351,3.44158553 C6.34409444,2.31521272 6.914894,1.48124858 7.90011674,0.951681349 C8.04049421,0.875582121 8.13287497,0.788537114 8.20616026,0.644157072 C8.4621427,0.137523857 9.03965148,-0.107453109 9.57587276,0.0447453468 C10.1218998,0.199028713 10.4914229,0.700449652 10.4707791,1.25972685 C10.4506515,1.83203474 10.0372605,2.31260658 9.47987935,2.41893701 C9.03913538,2.50233342 8.67786984,2.34648637 8.35789179,2.04261069 C7.77780255,2.39860913 7.47588777,2.91097585 7.46143715,3.58857171 C7.41963357,5.58591583 7.38866795,7.58221749 7.33912296,9.5795616 C7.32983328,9.9517181 7.43924513,10.2608061 7.6601332,10.5438326 C8.0410103,11.0311804 8.52046128,11.3955185 9.04842507,11.7004367 C10.8433987,12.7371583 13.1714971,12.2597139 14.4328299,10.5969978 C14.6181075,10.3535846 14.7218424,10.0919283 14.7218424,9.77502194 C14.7208102,9.07814066 14.7440344,8.38073815 14.7574528,7.68333564 C14.7832575,6.34742933 14.8152553,5.01152303 14.8328025,3.67457426 C14.8415761,3.01365768 14.5391452,2.51744902 14.0024078,2.15311094 C13.6953321,2.43092524 13.3619356,2.56592319 12.9743493,2.50650324 C12.3777451,2.41528841 11.9535161,1.93575903 11.9339046,1.35094168 C11.9137769,0.739541721 12.3008471,0.233950961 12.8912582,0.102080381 C13.4548325,-0.0230142395 14.00344,0.277734078 14.2563259,0.84326601 C14.2872915,0.91467419 14.3487067,0.989209735 14.4152827,1.02725935 C15.491338,1.64074422 16.0239466,2.56540196 15.9991741,3.81426326 C15.9620154,5.77512144 15.9093738,7.73597962 15.893891,9.69683781 C15.8887301,10.3931979 15.6554557,10.9717605 15.2100669,11.47683 C14.3409653,12.4650775 13.2463307,13.0644892 11.9782886,13.3584616 C11.8399755,13.3912989 11.7001141,13.4152754 11.5741873,13.4402943 C11.5380607,13.9380667 11.5334159,14.4191597 11.4652915,14.8908707 C11.0957685,17.4860629 8.51013941,19.373428 5.9425736,18.9371605 C3.47925869,18.517051 1.77356924,16.44882 1.81692111,13.9281634 C1.84530626,12.2722233 1.88040062,10.6173257 1.91291452,8.96086445 C1.91394671,8.90405065 1.9144628,8.84671561 1.91652718,8.77791357" id="Fill-90"></path>
        </g>
    </g>
</svg>