<?xml version="1.0" encoding="UTF-8"?>
<svg width="24px" height="24px" viewBox="0 0 24 24" version="1.1" xmlns="http://www.w3.org/2000/svg" xmlns:xlink="http://www.w3.org/1999/xlink">
    <!-- Generator: Sketch 55.1 (78136) - https://sketchapp.com -->
    <title>Ikon_arbeidsgiver 20x20 grå</title>
    <desc>Created with Sketch.</desc>
    <g id="Ikon_arbeidsgiver-20x20-grå" stroke="none" stroke-width="1" fill="none" fill-rule="evenodd">
        <g id="round-business-24px-copy" transform="translate(2.000000, 2.000000)">
            <polygon id="Path" points="0 0 20 0 20 20 0 20"></polygon>
            <path d="M10,5.83333333 L10,4.16666667 C10,3.25 9.25,2.5 8.33333333,2.5 L3.33333333,2.5 C2.41666667,2.5 1.66666667,3.25 1.66666667,4.16666667 L1.66666667,15.8333333 C1.66666667,16.75 2.41666667,17.5 3.33333333,17.5 L16.6666667,17.5 C17.5833333,17.5 18.3333333,16.75 18.3333333,15.8333333 L18.3333333,7.5 C18.3333333,6.58333333 17.5833333,5.83333333 16.6666667,5.83333333 L10,5.83333333 Z M5,15.8333333 L3.33333333,15.8333333 L3.33333333,14.1666667 L5,14.1666667 L5,15.8333333 Z M5,12.5 L3.33333333,12.5 L3.33333333,10.8333333 L5,10.8333333 L5,12.5 Z M5,9.16666667 L3.33333333,9.16666667 L3.33333333,7.5 L5,7.5 L5,9.16666667 Z M5,5.83333333 L3.33333333,5.83333333 L3.33333333,4.16666667 L5,4.16666667 L5,5.83333333 Z M8.33333333,15.8333333 L6.66666667,15.8333333 L6.66666667,14.1666667 L8.33333333,14.1666667 L8.33333333,15.8333333 Z M8.33333333,12.5 L6.66666667,12.5 L6.66666667,10.8333333 L8.33333333,10.8333333 L8.33333333,12.5 Z M8.33333333,9.16666667 L6.66666667,9.16666667 L6.66666667,7.5 L8.33333333,7.5 L8.33333333,9.16666667 Z M8.33333333,5.83333333 L6.66666667,5.83333333 L6.66666667,4.16666667 L8.33333333,4.16666667 L8.33333333,5.83333333 Z M15.8333333,15.8333333 L10,15.8333333 L10,14.1666667 L11.6666667,14.1666667 L11.6666667,12.5 L10,12.5 L10,10.8333333 L11.6666667,10.8333333 L11.6666667,9.16666667 L10,9.16666667 L10,7.5 L15.8333333,7.5 C16.2916667,7.5 16.6666667,7.875 16.6666667,8.33333333 L16.6666667,15 C16.6666667,15.4583333 16.2916667,15.8333333 15.8333333,15.8333333 Z M15,9.16666667 L13.3333333,9.16666667 L13.3333333,10.8333333 L15,10.8333333 L15,9.16666667 Z M15,12.5 L13.3333333,12.5 L13.3333333,14.1666667 L15,14.1666667 L15,12.5 Z" id="Shape" fill="#78706A" fill-rule="nonzero"></path>
        </g>
    </g>
</svg>