<?xml version="1.0" encoding="UTF-8"?>
<svg width="24px" height="24px" viewBox="0 0 24 24" version="1.1" xmlns="http://www.w3.org/2000/svg" xmlns:xlink="http://www.w3.org/1999/xlink">
    <!-- Generator: Sketch 55.1 (78136) - https://sketchapp.com -->
    <title>Ikon_viktig</title>
    <desc>Created with Sketch.</desc>
    <g id="Ikon_viktig" stroke="none" stroke-width="1" fill="none" fill-rule="evenodd">
        <g id="icon/-feedback/-report-problem-circle" transform="translate(1.000000, 0.000000)">
            <path d="M11.187725,0.996307692 L10.9916335,0.998234158 C8.04547855,1.05024874 5.27245799,2.24947375 3.18432282,4.37532887 C1.08088294,6.5165957 -0.0487953236,9.31960358 0.00190149928,12.2690229 C0.10712132,18.37303 4.85636143,23.1545184 10.8137164,23.1545184 L11.0078948,23.1525919 C17.1737763,23.0456731 22.1047597,17.9887001 21.9985834,11.8827664 C21.8933635,5.77875927 17.1441234,0.996307692 11.187725,0.996307692 Z" id="Shape" fill="#FFA733" fill-rule="nonzero"></path>
            <g id="Group" transform="translate(9.625000, 5.615385)" fill="#3E3832">
                <path d="M1.39990196,12.9229229 C1.39165242,12.9229229 1.38340288,12.9229229 1.37515334,12.9229229 C0.625820007,12.9229229 0.0126041073,12.3192642 0.000229795429,11.5633062 C-0.01351944,10.799041 0.591446918,10.1676915 1.35040471,10.1552307 C1.35865425,10.1552307 1.3669038,10.1538462 1.37515334,10.1538462 C2.12448667,10.1538462 2.73632764,10.7588894 2.75007688,11.5148474 C2.76382611,12.2791126 2.15748483,12.9090776 1.39990196,12.9229229 Z" id="Path"></path>
                <path d="M1.375,0 C1.88126102,0 2.29166667,0.413275616 2.29166667,0.923076923 L2.29166667,7.38461538 C2.29166667,7.89441669 1.88126102,8.30769231 1.375,8.30769231 C0.868738979,8.30769231 0.458333333,7.89441669 0.458333333,7.38461538 L0.458333333,0.923076923 C0.458333333,0.413275616 0.868738979,0 1.375,0 Z" id="Rectangle" fill-rule="nonzero"></path>
            </g>
        </g>
    </g>
</svg>