<svg width="293" height="45" viewBox="0 0 293 45" fill="none" xmlns="http://www.w3.org/2000/svg">
<g clip-path="url(#clip0_2703_6173)">
<path d="M56.0283 30.6392L58.949 40.1497" stroke="white" stroke-width="1.3" stroke-linecap="round"/>
<path d="M59.624 29.4031L62.5447 38.9137" stroke="white" stroke-width="1.3" stroke-linecap="round"/>
<path d="M61.749 42.8389C62.7528 42.4856 63.314 41.3573 63.0023 40.3187C62.6907 39.2801 61.6243 38.7245 60.6204 39.0777C59.6165 39.4309 59.0554 40.5592 59.367 41.5979C59.6787 42.6365 60.7451 43.1921 61.749 42.8389Z" fill="#FFA500"/>
<path d="M57.5501 9.14589L46.5918 12.9979L52.2617 31.8752L63.22 28.0232L57.5501 9.14589Z" fill="#FF6B81"/>
<path opacity="0.95" d="M47.3135 22.0532L54.2071 8.19237L56.5891 9.43338L49.6955 23.2942L47.3135 22.0532Z" fill="#FFE28A"/>
<path d="M49.693 3.45489L45.6046 13.1631L58.2776 8.71024L49.693 3.45489Z" fill="white"/>
<path d="M51.9002 29.9731L47.8637 36.5825L52.7454 32.7894L51.9002 29.9731Z" fill="#FFE28A"/>
<path d="M62.6357 26.3264L69.4895 29.1046L63.4809 29.1427L62.6357 26.3264Z" fill="#FFE28A"/>
<path d="M233.299 27.8009L230.853 37.4602" stroke="white" stroke-width="1.3" stroke-linecap="round"/>
<path d="M236.95 28.8362L234.504 38.4954" stroke="white" stroke-width="1.3" stroke-linecap="round"/>
<path d="M231.841 41.3383C232.859 41.6353 233.896 41.0203 234.156 39.9645C234.416 38.9088 233.801 37.8121 232.782 37.515C231.763 37.218 230.727 37.833 230.467 38.8888C230.207 39.9445 230.822 41.0412 231.841 41.3383Z" fill="#FFA500"/>
<path d="M245.495 10.686L234.376 7.44708L229.647 26.6325L240.766 29.8714L245.495 10.686Z" fill="#7EC8FF"/>
<path opacity="0.95" d="M237.487 6.49225L245.043 19.2256L242.593 20.5994L235.038 7.86603L237.487 6.49225Z" fill="#C7E7FF"/>
<path d="M230.136 24.8919L223.435 28.0523L229.431 27.7548L230.136 24.8919Z" fill="#C7E7FF"/>
<path d="M241.043 27.9396L245.394 34.3221L240.338 30.8025L241.043 27.9396Z" fill="#C7E7FF"/>
<path d="M241.933 1.33341L233.626 7.06668L246.489 10.8117L241.933 1.33341Z" fill="white"/>
<circle cx="80" cy="18" r="2" fill="white"/>
<circle cx="112" cy="4" r="2" fill="white"/>
<circle cx="186.5" cy="12.5" r="1.5" fill="white"/>
<circle cx="214" cy="6" r="1" fill="white"/>
<circle cx="206" cy="32" r="2" fill="white"/>
<circle cx="266" cy="35" r="2" fill="white"/>
<circle cx="13" cy="13" r="2" fill="white"/>
<path d="M282 5L283.796 10.5279H289.608L284.906 13.9443L286.702 19.4721L282 16.0557L277.298 19.4721L279.094 13.9443L274.392 10.5279H280.204L282 5Z" fill="#FFE28A"/>
<path d="M260.5 16L261.061 17.7275H262.878L261.408 18.7951L261.969 20.5225L260.5 19.4549L259.031 20.5225L259.592 18.7951L258.122 17.7275H259.939L260.5 16Z" fill="#D9D9D9"/>
<path d="M269 12L269.898 14.7639H272.804L270.453 16.4721L271.351 19.2361L269 17.5279L266.649 19.2361L267.547 16.4721L265.196 14.7639H268.102L269 12Z" fill="#D9D9D9"/>
<path d="M271 22L271.898 24.7639H274.804L272.453 26.4721L273.351 29.2361L271 27.5279L268.649 29.2361L269.547 26.4721L267.196 24.7639H270.102L271 22Z" fill="#D9D9D9"/>
<path d="M206 9L207.796 14.5279H213.608L208.906 17.9443L210.702 23.4721L206 20.0557L201.298 23.4721L203.094 17.9443L198.392 14.5279H204.204L206 9Z" fill="#FFB4C7"/>
<path d="M189.5 24L190.735 27.8004H194.731L191.498 30.1492L192.733 33.9496L189.5 31.6008L186.267 33.9496L187.502 30.1492L184.269 27.8004H188.265L189.5 24Z" fill="#CCE1F3"/>
<path d="M175 17L175.898 19.7639H178.804L176.453 21.4721L177.351 24.2361L175 22.5279L172.649 24.2361L173.547 21.4721L171.196 19.7639H174.102L175 17Z" fill="#BDFAA3"/>
<path d="M100.5 5L103.082 12.9463H111.437L104.678 17.8574L107.26 25.8037L100.5 20.8926L93.7405 25.8037L96.3224 17.8574L89.5628 12.9463H97.9181L100.5 5Z" fill="#FFE28A"/>
<path d="M120.5 22L121.286 24.4184H123.829L121.771 25.9131L122.557 28.3316L120.5 26.8369L118.443 28.3316L119.229 25.9131L117.171 24.4184H119.714L120.5 22Z" fill="#FFB4C7"/>
<path d="M87 28L88.1226 31.4549H91.7553L88.8164 33.5902L89.9389 37.0451L87 34.9098L84.0611 37.0451L85.1836 33.5902L82.2447 31.4549H85.8774L87 28Z" fill="#E5E5E5"/>
<path d="M24.5 10L26.1839 15.1824H31.6329L27.2245 18.3853L28.9084 23.5676L24.5 20.3647L20.0916 23.5676L21.7755 18.3853L17.3671 15.1824H22.8161L24.5 10Z" fill="#CCE1F3"/>
<path d="M28.5 30L29.5103 33.1094H32.7798L30.1347 35.0312L31.145 38.1406L28.5 36.2188L25.855 38.1406L26.8653 35.0312L24.2202 33.1094H27.4897L28.5 30Z" fill="#FFE28A"/>
<path d="M161.235 45.0403C162.074 36.2676 163.955 4.90935 148.644 7.83163C130.91 11.2153 138.185 31.9907 135.744 39.9707C135.286 41.5265 134.691 43.2183 134 45.0403" fill="#49BC92"/>
<path d="M139.221 44.9457C141.602 32.9135 138.25 19.9762 141.477 19.6982C144.703 19.4201 142.346 45.0403 142.346 45.0403L139.221 44.9457Z" fill="#0B9C53"/>
<path d="M144.936 45.0403C147.364 30.3343 143.679 15.2319 147.138 14.8711C150.597 14.5102 148.079 45.0403 148.079 45.0403H144.936Z" fill="#0B9C53"/>
<path d="M151.079 45.0403C153.615 32.9076 150.037 20.1951 153.264 19.9171C156.49 19.639 154.151 45.0403 154.151 45.0403H151.079Z" fill="#0B9C53"/>
<path d="M144.268 28.8001C145.521 28.8001 146.537 27.7255 146.537 26.4001C146.537 25.0746 145.521 24.0001 144.268 24.0001C143.016 24.0001 142 25.0746 142 26.4001C142 27.7255 143.016 28.8001 144.268 28.8001Z" fill="#222222"/>
<path d="M150.885 28.8001C152.137 28.8001 153.153 27.7255 153.153 26.4001C153.153 25.0746 152.137 24.0001 150.885 24.0001C149.632 24.0001 148.616 25.0746 148.616 26.4001C148.616 27.7255 149.632 28.8001 150.885 28.8001Z" fill="#222222"/>
<path d="M143.512 26.3C143.878 26.3 144.174 25.9866 144.174 25.6C144.174 25.2134 143.878 24.9 143.512 24.9C143.147 24.9 142.851 25.2134 142.851 25.6C142.851 25.9866 143.147 26.3 143.512 26.3Z" fill="white"/>
<path d="M150.128 26.3C150.494 26.3 150.79 25.9866 150.79 25.6C150.79 25.2134 150.494 24.9 150.128 24.9C149.763 24.9 149.467 25.2134 149.467 25.6C149.467 25.9866 149.763 26.3 150.128 26.3Z" fill="white"/>
<path d="M169.001 4.50005C164.079 7.95886 162.165 10.1976 161.058 15C161.058 15 139.999 15.5001 136 15.5001C132.001 15.5001 150.358 2.82017 169.001 4.50005Z" fill="#B4CDFF"/>
<path d="M161.389 15.0001H135.611C134.721 15.0001 134 15.8955 134 17.0001C134 18.1046 134.721 19.0001 135.611 19.0001H161.389C162.279 19.0001 163 18.1046 163 17.0001C163 15.8955 162.279 15.0001 161.389 15.0001Z" fill="#FFE28A"/>
<path d="M168.332 -0.781039L170.202 1.98993L173.523 1.05539L171.194 3.85404L173.51 7.65376L170.266 6.09359L168.312 9.11652L168.306 4.66668L164.86 3.49332L168.181 2.55878L168.332 -0.781039Z" fill="#FFE28A"/>
<path d="M145 30.0001C147 32.6667 149 32.6667 151 30.0001" stroke="#222222" stroke-width="1.3" stroke-linecap="round"/>
<path opacity="0.9" d="M141.418 30.9C142.201 30.9 142.835 30.2285 142.835 29.4C142.835 28.5716 142.201 27.9 141.418 27.9C140.635 27.9 140 28.5716 140 29.4C140 30.2285 140.635 30.9 141.418 30.9Z" fill="#FFB4C7"/>
<path opacity="0.9" d="M154.083 30.9C154.866 30.9 155.501 30.2285 155.501 29.4C155.501 28.5716 154.866 27.9 154.083 27.9C153.3 27.9 152.665 28.5716 152.665 29.4C152.665 30.2285 153.3 30.9 154.083 30.9Z" fill="#FFB4C7"/>
</g>
<defs>
<clipPath id="clip0_2703_6173">
<rect width="293" height="45" fill="white"/>
</clipPath>
</defs>
</svg>
