<svg width="28" height="28" xmlns="http://www.w3.org/2000/svg">
    <g transform="translate(1 1)" stroke="#FFF" fill="none" fill-rule="evenodd">
        <path d="M9.84 18.601l1.911 1.91a.58.58 0 0 1-.821.82l-1.91-1.909-1.91 1.91a.583.583 0 0 1-.82-.001.58.58 0 0 1 0-.82L8.2 18.6l-1.91-1.91a.58.58 0 0 1 .82-.82l1.91 1.91 1.91-1.91a.58.58 0 0 1 .82.82l-1.91 1.91zM5.817 9.209a.565.565 0 1 1 0-1.131h2.262V5.816a.566.566 0 0 1 1.13 0v2.262h2.263a.566.566 0 0 1 0 1.13H9.209v2.263a.566.566 0 0 1-1.131 0V9.209H5.816zM15.904 8.7c-.313 0-.565-.221-.565-.493s.253-.493.565-.493h5.655c.313 0 .566.22.566.493 0 .272-.253.493-.566.493h-5.655zm5.655 10.844a.566.566 0 0 1 0 1.131h-5.655a.566.566 0 0 1 0-1.13h5.655zm0-2.842a.566.566 0 0 1 0 1.13h-5.655a.566.566 0 0 1 0-1.13h5.655z"
              stroke-width=".3" fill="#FFF"/>
        <rect stroke-width="1.5" x=".75" y=".75" width="25.5" height="25.5" rx="4"/>
    </g>
</svg>