<?xml version="1.0" encoding="UTF-8"?>
<svg width="28px" height="28px" viewBox="0 0 28 28" version="1.1" xmlns="http://www.w3.org/2000/svg" xmlns:xlink="http://www.w3.org/1999/xlink">
    <!-- Generator: Sketch 55.1 (78136) - https://sketchapp.com -->
    <title>Helse</title>
    <desc>Created with Sketch.</desc>
    <g id="Helse" stroke="none" stroke-width="1" fill="none" fill-rule="evenodd">
        <g id="Path-2-Copy" transform="translate(1.000000, 1.000000)" stroke="#FFFFFF" stroke-width="1.5">
            <path d="M13,0 C11.57,0 10.4,1.17 10.4,2.6 L10.4,10.4 L2.6,10.4 C1.17,10.4 0,11.57 0,13 C0,14.43 1.17,15.6 2.6,15.6 L10.4,15.6 L10.4,23.4 C10.4,24.83 11.57,26 13,26 C14.43,26 15.6,24.83 15.6,23.4 L15.6,15.6 L23.4,15.6 C24.83,15.6 26,14.43 26,13 C26,11.57 24.83,10.4 23.4,10.4 L15.6,10.4 L15.6,2.6 C15.6,1.17 14.43,0 13,0 Z" id="Path"></path>
        </g>
    </g>
</svg>