<svg width="28" height="28" xmlns="http://www.w3.org/2000/svg">
    <g transform="translate(1 1)" fill="#FFF" fill-rule="evenodd">
        <path d="M26.438 2.25H22.5V.562A.563.563 0 0 0 21.937 0h-3.375A.563.563 0 0 0 18 .563V2.25H9V.562A.563.563 0 0 0 8.437 0H5.063A.563.563 0 0 0 4.5.563V2.25H.562A.563.563 0 0 0 0 2.813v23.625c0 .31.252.562.563.562h25.875c.31 0 .562-.252.562-.563V2.813a.563.563 0 0 0-.563-.562zm-7.313-1.125h2.25V4.5h-2.25V1.125zm-13.5 0h2.25V4.5h-2.25V1.125zM4.5 3.375v1.688c0 .31.252.562.563.562h3.375c.31 0 .562-.252.562-.563V3.375h9v1.688c0 .31.252.562.563.562h3.375c.31 0 .562-.252.562-.563V3.375h3.375v22.214H1.125V3.375H4.5z"
              stroke="#FFF" stroke-width=".3"/>
        <rect x="5.4" y="11.571" width="2.314" height="2.314" rx=".5"/>
        <rect x="5.4" y="17.743" width="2.314" height="2.314" rx=".5"/>
        <rect x="12.343" y="11.571" width="2.314" height="2.314" rx=".5"/>
        <rect x="12.343" y="17.743" width="2.314" height="2.314" rx=".5"/>
        <rect x="19.286" y="11.571" width="2.314" height="2.314" rx=".5"/>
        <rect x="19.286" y="17.743" width="2.314" height="2.314" rx=".5"/>
    </g>
</svg>