<?xml version="1.0" encoding="UTF-8"?>
<svg width="28px" height="28px" viewBox="0 0 28 28" version="1.1" xmlns="http://www.w3.org/2000/svg" xmlns:xlink="http://www.w3.org/1999/xlink">
    <!-- Generator: Sketch 55.1 (78136) - https://sketchapp.com -->
    <title>Kalender Copy</title>
    <desc>Created with Sketch.</desc>
    <g id="Kalender-Copy" stroke="none" stroke-width="1" fill="none" fill-rule="evenodd">
        <g id="Group-32-Copy-3" fill="#FFFFFF">
            <g id="Group-32-Copy">
                <path d="M27.4166667,2.33333333 L23.3333333,2.33333333 L23.3333333,0.583333333 C23.3333333,0.261333333 23.072,3.80140364e-13 22.75,3.80140364e-13 L19.25,3.80140364e-13 C18.928,3.80140364e-13 18.6666667,0.261333333 18.6666667,0.583333333 L18.6666667,2.33333333 L9.33333333,2.33333333 L9.33333333,0.583333333 C9.33333333,0.261333333 9.072,3.80140364e-13 8.75,3.80140364e-13 L5.25,3.80140364e-13 C4.928,3.80140364e-13 4.66666667,0.261333333 4.66666667,0.583333333 L4.66666667,2.33333333 L0.583333333,2.33333333 C0.261333333,2.33333333 -3.55271368e-15,2.59466667 -3.55271368e-15,2.91666667 L-3.55271368e-15,27.4166667 C-3.55271368e-15,27.7386667 0.261333333,28 0.583333333,28 L27.4166667,28 C27.7386667,28 28,27.7386667 28,27.4166667 L28,2.91666667 C28,2.59466667 27.7386667,2.33333333 27.4166667,2.33333333 Z M19.8333333,1.16666667 L22.1666667,1.16666667 L22.1666667,4.66666667 L19.8333333,4.66666667 L19.8333333,1.16666667 Z M5.83333333,1.16666667 L8.16666667,1.16666667 L8.16666667,4.66666667 L5.83333333,4.66666667 L5.83333333,1.16666667 Z M4.66666667,3.5 L4.66666667,5.25 C4.66666667,5.572 4.928,5.83333333 5.25,5.83333333 L8.75,5.83333333 C9.072,5.83333333 9.33333333,5.572 9.33333333,5.25 L9.33333333,3.5 L18.6666667,3.5 L18.6666667,5.25 C18.6666667,5.572 18.928,5.83333333 19.25,5.83333333 L22.75,5.83333333 C23.072,5.83333333 23.3333333,5.572 23.3333333,5.25 L23.3333333,3.5 L26.8333333,3.5 L26.8333333,26.5367811 L1.16666667,26.5367811 L1.16666667,3.5 L4.66666667,3.5 Z" id="Combined-Shape-Copy-3" stroke="#FFFFFF" stroke-width="0.3"></path>
                <rect id="Rectangle" x="5.6" y="12" width="2.4" height="2.4" rx="0.5"></rect>
                <rect id="Rectangle-Copy-17" x="5.6" y="18.4" width="2.4" height="2.4" rx="0.5"></rect>
                <rect id="Rectangle-Copy-15" x="12.8" y="12" width="2.4" height="2.4" rx="0.5"></rect>
                <rect id="Rectangle-Copy-18" x="12.8" y="18.4" width="2.4" height="2.4" rx="0.5"></rect>
                <rect id="Rectangle-Copy-16" x="20" y="12" width="2.4" height="2.4" rx="0.5"></rect>
                <rect id="Rectangle-Copy-19" x="20" y="18.4" width="2.4" height="2.4" rx="0.5"></rect>
            </g>
        </g>
        <g id="Group-32-Copy-3" transform="translate(1.000000, 1.000000)" fill="#3E3832">
            <g id="Group-32-Copy">
                <path d="M26.4375,2.25 L22.5,2.25 L22.5,0.5625 C22.5,0.252 22.248,3.80140364e-13 21.9375,3.80140364e-13 L18.5625,3.80140364e-13 C18.252,3.80140364e-13 18,0.252 18,0.5625 L18,2.25 L9,2.25 L9,0.5625 C9,0.252 8.748,3.80140364e-13 8.4375,3.80140364e-13 L5.0625,3.80140364e-13 C4.752,3.80140364e-13 4.5,0.252 4.5,0.5625 L4.5,2.25 L0.5625,2.25 C0.252,2.25 -3.55271368e-15,2.502 -3.55271368e-15,2.8125 L-3.55271368e-15,26.4375 C-3.55271368e-15,26.748 0.252,27 0.5625,27 L26.4375,27 C26.748,27 27,26.748 27,26.4375 L27,2.8125 C27,2.502 26.748,2.25 26.4375,2.25 Z M19.125,1.125 L21.375,1.125 L21.375,4.5 L19.125,4.5 L19.125,1.125 Z M5.625,1.125 L7.875,1.125 L7.875,4.5 L5.625,4.5 L5.625,1.125 Z M4.5,3.375 L4.5,5.0625 C4.5,5.373 4.752,5.625 5.0625,5.625 L8.4375,5.625 C8.748,5.625 9,5.373 9,5.0625 L9,3.375 L18,3.375 L18,5.0625 C18,5.373 18.252,5.625 18.5625,5.625 L21.9375,5.625 C22.248,5.625 22.5,5.373 22.5,5.0625 L22.5,3.375 L25.875,3.375 L25.875,25.5890389 L1.125,25.5890389 L1.125,3.375 L4.5,3.375 Z" id="Combined-Shape-Copy-3" stroke="#3E3832" stroke-width="0.3"></path>
                <rect id="Rectangle" x="5.4" y="11.5714286" width="2.31428571" height="2.31428571" rx="0.5"></rect>
                <rect id="Rectangle-Copy-17" x="5.4" y="17.7428571" width="2.31428571" height="2.31428571" rx="0.5"></rect>
                <rect id="Rectangle-Copy-15" x="12.3428571" y="11.5714286" width="2.31428571" height="2.31428571" rx="0.5"></rect>
                <rect id="Rectangle-Copy-18" x="12.3428571" y="17.7428571" width="2.31428571" height="2.31428571" rx="0.5"></rect>
                <rect id="Rectangle-Copy-16" x="19.2857143" y="11.5714286" width="2.31428571" height="2.31428571" rx="0.5"></rect>
                <rect id="Rectangle-Copy-19" x="19.2857143" y="17.7428571" width="2.31428571" height="2.31428571" rx="0.5"></rect>
            </g>
        </g>
    </g>
</svg>