<?xml version="1.0" encoding="UTF-8"?>
<svg width="28px" height="28px" viewBox="0 0 28 28" version="1.1" xmlns="http://www.w3.org/2000/svg" xmlns:xlink="http://www.w3.org/1999/xlink">
    <!-- Generator: Sketch 55.1 (78136) - https://sketchapp.com -->
    <title>Vedtak</title>
    <desc>Created with Sketch.</desc>
    <g id="Vedtak" stroke="none" stroke-width="1" fill="none" fill-rule="evenodd">
        <g id="Group-30-Copy-3" transform="translate(1.000000, 1.000000)" stroke="#FFFFFF">
            <g id="Group-30-Copy">
                <g id="Group-25">
                    <path d="M4.5,9.54808594 L4.5,0.552801724 C4.5,0.247655172 4.752,0 5.0625,0 L21.9375,0 C22.248,0 22.5,0.247655172 22.5,0.552801724 L22.5,9.54808594 L26.755875,12.474 C26.908875,12.57975 27,12.751875 27,12.9375 L27,24.75 C27,25.990875 25.990875,27 24.75,27 L2.25,27 C1.009125,27 1.0658141e-14,25.990875 1.0658141e-14,24.75 L1.0658141e-14,12.9375 C1.0658141e-14,12.751875 0.091125,12.57975 0.244125,12.474 L4.5,9.54808594 Z M4.5,10.9128952 L1.125,13.233375 L1.125,24.75 C1.125,25.371 1.629,25.875 2.25,25.875 L24.75,25.875 C25.371,25.875 25.875,25.371 25.875,24.75 L25.875,13.233375 L22.5,10.9128952 L22.5,15.4784483 C22.5,15.7835948 22.248,16.03125 21.9375,16.03125 C21.627,16.03125 21.375,15.7835948 21.375,15.4784483 L21.375,1.10560345 L5.625,1.10560345 L5.625,15.4784483 C5.625,15.7835948 5.373,16.03125 5.0625,16.03125 C4.752,16.03125 4.5,15.7835948 4.5,15.4784483 L4.5,10.9128952 Z M23.0625,23.625 C22.93875,23.625 22.815,23.5845 22.710375,23.502375 L17.2395,19.125 L9.7605,19.125 L4.289625,23.502375 C4.0455,23.695875 3.693375,23.657625 3.49875,23.414625 C3.30525,23.171625 3.3435,22.818375 3.5865,22.62375 L9.2115,18.12375 C9.3105,18.043875 9.435375,18 9.5625,18 L17.4375,18 C17.564625,18 17.6895,18.043875 17.789625,18.122625 L23.414625,22.622625 C23.657625,22.81725 23.695875,23.1705 23.502375,23.4135 C23.391,23.553 23.22675,23.625 23.0625,23.625 Z" id="Combined-Shape-Copy-4" stroke-width="0.3" fill="#FFFFFF"></path>
                    <path d="M1.125,13.233375 L7.59375,17.2882617" id="Path-7" stroke-width="1.5" stroke-linecap="round"></path>
                    <path d="M19.4464286,13.233375 L25.9151786,17.2882617" id="Path-7" stroke-width="1.5" stroke-linecap="round" transform="translate(22.680804, 15.260818) scale(1, -1) translate(-22.680804, -15.260818) "></path>
                </g>
            </g>
        </g>
    </g>
</svg>