<svg width="28" height="28" xmlns="http://www.w3.org/2000/svg">
    <g stroke="#3E3832" fill="none" fill-rule="evenodd">
        <path d="M5.5 10.548V1.553c0-.305.252-.553.563-.553h16.875c.31 0 .562.248.562.553v8.995l4.256 2.926a.562.562 0 0 1 .244.463V25.75c0 1.24-1.01 2.25-2.25 2.25H3.25C2.01 28 1 26.99 1 25.75V13.937c0-.185.091-.357.244-.463L5.5 10.548zm0 1.365l-3.375 2.32V25.75c0 .621.504 1.125 1.125 1.125h22.5c.621 0 1.125-.504 1.125-1.125V14.233l-3.375-2.32v4.565a.558.558 0 0 1-.563.553.558.558 0 0 1-.562-.553V2.106H6.625v14.372a.558.558 0 0 1-.563.553.558.558 0 0 1-.562-.553v-4.565zm18.563 12.712a.568.568 0 0 1-.353-.123l-5.47-4.377h-7.48l-5.47 4.377a.563.563 0 0 1-.704-.878l5.625-4.5a.561.561 0 0 1 .351-.124h7.875c.128 0 .252.044.353.123l5.625 4.5a.563.563 0 0 1-.352 1.002z"
              stroke-width=".3" fill="#3E3832"/>
        <path d="M2.125 14.233l6.469 4.055M20.446 18.288l6.47-4.055" stroke-width="1.5" stroke-linecap="round"/>
    </g>
</svg>